<svg width="18" height="17" viewBox="0 0 18 17" fill="none" xmlns="http://www.w3.org/2000/svg">
<path fill-rule="evenodd" clip-rule="evenodd" d="M17.25 0.5H0.75C0.335786 0.5 0 0.835786 0 1.25V15.5C0 16.3284 0.671573 17 1.5 17H5.25C6.07843 17 6.75 16.3284 6.75 15.5V11H11.25V12.5C11.25 13.3284 11.9216 14 12.75 14H16.5C17.3284 14 18 13.3284 18 12.5V1.25C18 0.835786 17.6642 0.5 17.25 0.5V0.5ZM5.25 15.5H1.5V8H5.25V15.5ZM5.25 6.5H1.5V2H5.25V6.5ZM11.25 9.5H6.75V2H11.25V9.5ZM16.5 12.5H12.75V8H16.5V12.5ZM16.5 6.5H12.75V2H16.5V6.5Z" fill="white"/>
</svg>
