<svg width="22" height="20" viewBox="0 0 22 20" fill="none" xmlns="http://www.w3.org/2000/svg">
<path fill-rule="evenodd" clip-rule="evenodd" d="M21.1766 11.0081L17.1922 8.25L21.1766 5.49187C21.3791 5.35182 21.5 5.12125 21.5 4.875C21.5 4.62875 21.3791 4.39818 21.1766 4.25812L16.3016 0.883125C16.0449 0.705636 15.7051 0.705636 15.4484 0.883125L11 3.96281L6.55156 0.883125C6.29488 0.705636 5.95512 0.705636 5.69844 0.883125L0.823437 4.25812C0.620895 4.39818 0.500011 4.62875 0.500011 4.875C0.500011 5.12125 0.620895 5.35182 0.823437 5.49187L4.8125 8.25L0.828125 11.0081C0.625583 11.1482 0.504699 11.3787 0.504699 11.625C0.504699 11.8713 0.625583 12.1018 0.828125 12.2419L5.70312 15.6169C5.95981 15.7944 6.29957 15.7944 6.55625 15.6169L11 12.5372L15.4484 15.6169C15.7051 15.7944 16.0449 15.7944 16.3016 15.6169L21.1766 12.2419C21.3791 12.1018 21.5 11.8713 21.5 11.625C21.5 11.3787 21.3791 11.1482 21.1766 11.0081V11.0081ZM11 10.7128L7.44219 8.25L11.0047 5.78719L14.5625 8.25L11 10.7128ZM15.875 2.41219L19.4375 4.875L15.875 7.33781L12.3172 4.875L15.875 2.41219ZM6.125 2.41219L9.6875 4.875L6.125 7.33781L2.56719 4.875L6.125 2.41219ZM6.125 14.0878L2.56719 11.625L6.12969 9.16219L9.6875 11.625L6.125 14.0878ZM15.875 14.0878L12.3172 11.625L15.875 9.16219L19.4375 11.625L15.875 14.0878ZM13.8566 16.3978C14.0927 16.7378 14.0088 17.2048 13.6691 17.4412L11.4294 18.9919C11.1727 19.1694 10.8329 19.1694 10.5763 18.9919L8.33375 17.4375C7.99503 17.2012 7.91109 16.7355 8.14599 16.3958C8.38089 16.0561 8.84621 15.9703 9.18688 16.2038L11 17.4628L12.8131 16.2075C13.1538 15.9719 13.621 16.0571 13.8566 16.3978V16.3978Z" fill="white"/>
</svg>
