<svg width="22" height="19" viewBox="0 0 22 19" fill="none" xmlns="http://www.w3.org/2000/svg">
<path fill-rule="evenodd" clip-rule="evenodd" d="M21.25 12.75V15.75C21.25 16.1642 20.9142 16.5 20.5 16.5C20.0858 16.5 19.75 16.1642 19.75 15.75V14.5603L19.5428 14.7684C19.2522 15.0844 15.76 18.75 10 18.75C4.10875 18.75 0.589375 14.9147 0.442188 14.7516C0.165182 14.4422 0.191416 13.9668 0.500781 13.6898C0.810147 13.4128 1.28549 13.4391 1.5625 13.7484C1.58781 13.7813 4.79688 17.25 10 17.25C15.2031 17.25 18.4122 13.7812 18.4441 13.7475C18.452 13.7377 18.4605 13.7283 18.4694 13.7194L18.6897 13.5H17.5C17.0858 13.5 16.75 13.1642 16.75 12.75C16.75 12.3358 17.0858 12 17.5 12H20.5C20.6989 12 20.8897 12.079 21.0303 12.2197C21.171 12.3603 21.25 12.5511 21.25 12.75V12.75ZM13 5.86219V4.875C13.001 3.31398 11.9314 1.95593 10.4136 1.59119C8.89577 1.22645 7.32587 1.9502 6.6175 3.34125C6.42903 3.71016 5.97719 3.85644 5.60828 3.66797C5.23937 3.4795 5.0931 3.02766 5.28156 2.65875C6.30524 0.650164 8.57261 -0.394535 10.7646 0.132441C12.9565 0.659418 14.5012 2.6206 14.5 4.875V13.5C14.5 13.9142 14.1642 14.25 13.75 14.25C13.3358 14.25 13 13.9142 13 13.5V12.8878C11.0775 14.7377 8.02505 14.6986 6.15062 12.8C4.27619 10.9013 4.27619 7.84865 6.15062 5.95003C8.02505 4.05141 11.0775 4.01226 13 5.86219V5.86219ZM13 9.375C13 7.51104 11.489 6 9.625 6C7.76104 6 6.25 7.51104 6.25 9.375C6.25 11.239 7.76104 12.75 9.625 12.75C11.489 12.75 13 11.239 13 9.375V9.375Z" fill="white"/>
</svg>
