<svg width="14" height="14" viewBox="0 0 14 14" fill="none" xmlns="http://www.w3.org/2000/svg">
<path fill-rule="evenodd" clip-rule="evenodd" d="M12.1583 6.20873C12.4526 6.14543 12.5621 6.18629 12.586 6.19779C12.5958 6.21833 12.6182 6.28566 12.6027 6.44453C12.5802 6.67516 12.4834 7.00153 12.2857 7.41003C11.8933 8.22103 11.1695 9.22103 10.1952 10.1953C9.22099 11.1695 8.22103 11.8933 7.40999 12.2857C7.00149 12.4834 6.67513 12.5802 6.44449 12.6027C6.28566 12.6182 6.21833 12.5958 6.19776 12.586C6.18626 12.5621 6.14539 12.4527 6.20869 12.1583C6.28536 11.8018 6.48959 11.3219 6.83456 10.7606C7.25246 10.0806 7.84986 9.32479 8.58733 8.58733C9.32476 7.84989 10.0805 7.25246 10.7605 6.83456C11.3219 6.48963 11.8018 6.28539 12.1583 6.20873ZM0.47059 8.74676L5.25319 13.5294C5.62706 13.9032 6.13419 13.9726 6.57386 13.9298C7.01946 13.8863 7.50489 13.721 7.99073 13.486C8.96836 13.0129 10.0872 12.1889 11.138 11.1381C12.1889 10.0873 13.0129 8.96839 13.4859 7.99076C13.721 7.50493 13.8863 7.01949 13.9297 6.57389C13.9726 6.13423 13.9032 5.62709 13.5293 5.25323L8.74673 0.470618C8.28419 0.00808811 7.62546 0.00857133 7.09533 0.122581C6.53599 0.242871 5.91109 0.528058 5.27983 0.915998C4.49923 1.39571 3.66266 2.06117 2.86189 2.86193C2.06114 3.66266 1.39568 4.49926 0.915966 5.27986C0.52803 5.91113 0.242843 6.53603 0.122553 7.09536C0.00853969 7.62549 0.00805646 8.28423 0.47059 8.74676Z" fill="white"/>
</svg>
