<svg width="24" height="22" viewBox="0 0 24 22" fill="none" xmlns="http://www.w3.org/2000/svg">
<g filter="url(#filter0_d_13_304)">
<path fill-rule="evenodd" clip-rule="evenodd" d="M20.25 12.2584V18.25C20.25 18.6642 19.9142 19 19.5 19H4.5C4.08579 19 3.75 18.6642 3.75 18.25V12.2584C3.75 11.8442 4.08579 11.5084 4.5 11.5084C4.91421 11.5084 5.25 11.8442 5.25 12.2584V17.5H18.75V12.2584C18.75 11.8442 19.0858 11.5084 19.5 11.5084C19.9142 11.5084 20.25 11.8442 20.25 12.2584V12.2584ZM8.25 15.2584H15.75C16.1642 15.2584 16.5 14.9227 16.5 14.5084C16.5 14.0942 16.1642 13.7584 15.75 13.7584H8.25C7.83579 13.7584 7.5 14.0942 7.5 14.5084C7.5 14.9227 7.83579 15.2584 8.25 15.2584V15.2584ZM8.7075 10.2897L15.9516 12.2284C16.0151 12.2458 16.0807 12.2547 16.1466 12.2547C16.5206 12.2517 16.8353 11.9736 16.8842 11.6027C16.933 11.2318 16.7012 10.8816 16.3406 10.7819L9.09375 8.83844C8.82687 8.73985 8.5272 8.80076 8.31997 8.9957C8.11275 9.19064 8.03367 9.48604 8.11579 9.75844C8.1979 10.0308 8.42707 10.2333 8.7075 10.2812V10.2897ZM10.4372 5.60875L16.9322 9.35875C17.1045 9.45825 17.3093 9.4852 17.5014 9.43368C17.6936 9.38217 17.8574 9.2564 17.9569 9.08406C18.1628 8.72568 18.0399 8.26825 17.6822 8.06125L11.1872 4.30656C10.9547 4.15877 10.6599 4.15033 10.4193 4.28459C10.1788 4.41885 10.0312 4.67418 10.0349 4.94965C10.0386 5.22512 10.1931 5.47637 10.4372 5.60406V5.60875ZM18.6244 6.8275C18.9174 7.12107 19.393 7.12149 19.6866 6.82844C19.9801 6.53538 19.9806 6.05982 19.6875 5.76625L14.3841 0.469375C14.0894 0.18896 13.625 0.194492 13.3371 0.481845C13.0493 0.769198 13.0429 1.23363 13.3228 1.52875L18.6244 6.8275Z" fill="white"/>
</g>
<defs>
<filter id="filter0_d_13_304" x="-0.25" y="0.262634" width="24.5" height="26.7374" filterUnits="userSpaceOnUse" color-interpolation-filters="sRGB">
<feFlood flood-opacity="0" result="BackgroundImageFix"/>
<feColorMatrix in="SourceAlpha" type="matrix" values="0 0 0 0 0 0 0 0 0 0 0 0 0 0 0 0 0 0 127 0" result="hardAlpha"/>
<feOffset dy="4"/>
<feGaussianBlur stdDeviation="2"/>
<feComposite in2="hardAlpha" operator="out"/>
<feColorMatrix type="matrix" values="0 0 0 0 0 0 0 0 0 0 0 0 0 0 0 0 0 0 0.25 0"/>
<feBlend mode="normal" in2="BackgroundImageFix" result="effect1_dropShadow_13_304"/>
<feBlend mode="normal" in="SourceGraphic" in2="effect1_dropShadow_13_304" result="shape"/>
</filter>
</defs>
</svg>
